<?xml version="1.0" standalone="no"?>
<!DOCTYPE svg PUBLIC "-//W3C//DTD SVG 20010904//EN"
 "http://www.w3.org/TR/2001/REC-SVG-20010904/DTD/svg10.dtd">
<svg version="1.0" xmlns="http://www.w3.org/2000/svg"
 width="840.000000pt" height="840.000000pt" viewBox="0 0 840.000000 840.000000"
 preserveAspectRatio="xMidYMid meet">

<g transform="translate(0.000000,840.000000) scale(0.100000,-0.100000)"
fill="#000000" stroke="none">
<path d="M3220 4955 l0 -335 60 0 60 0 2 194 3 194 160 -145 c88 -80 190 -172
228 -205 l67 -60 0 336 0 336 -60 0 -60 0 -2 -195 -3 -195 -223 205 c-122 113
-225 205 -227 205 -3 0 -5 -151 -5 -335z"/>
<path d="M428 5265 c-125 -40 -175 -190 -97 -289 11 -14 60 -45 107 -67 108
-51 132 -72 132 -115 0 -45 -30 -64 -101 -64 -39 0 -70 7 -104 25 -27 13 -50
23 -51 22 0 -1 -13 -23 -29 -50 l-27 -47 55 -26 c67 -30 156 -46 211 -37 127
19 200 116 176 231 -15 66 -62 113 -150 148 -114 44 -148 88 -109 137 18 24
28 27 77 27 35 0 74 -8 101 -20 24 -11 45 -19 46 -18 14 16 44 91 40 98 -10
16 -117 51 -174 55 -35 3 -74 -1 -103 -10z"/>
<path d="M1003 5266 c-137 -45 -213 -159 -213 -320 0 -176 98 -295 268 -326
48 -8 77 -8 120 1 54 11 132 43 132 55 0 7 -42 104 -45 104 -1 0 -24 -9 -50
-21 -69 -30 -168 -24 -218 13 -55 43 -80 105 -75 188 5 85 40 143 108 178 57
28 102 28 168 -3 l53 -25 25 55 c13 31 24 57 24 59 0 2 -24 14 -52 26 -65 28
-184 36 -245 16z"/>
<path d="M7578 5265 c-125 -40 -175 -190 -97 -289 11 -14 60 -45 107 -67 108
-51 132 -72 132 -115 0 -45 -30 -64 -101 -64 -39 0 -70 7 -104 25 -27 13 -50
23 -51 22 0 -1 -13 -23 -29 -50 l-27 -47 55 -26 c67 -30 156 -46 211 -37 127
19 200 116 176 231 -15 66 -62 113 -150 148 -114 44 -148 88 -109 137 18 24
28 27 77 27 35 0 74 -8 101 -20 24 -11 45 -19 46 -18 14 16 44 91 40 98 -10
16 -117 51 -174 55 -35 3 -74 -1 -103 -10z"/>
<path d="M1440 4945 l0 -325 60 0 60 0 0 105 0 105 45 0 45 0 70 -105 70 -105
70 0 c39 0 70 3 70 6 0 3 -32 55 -71 116 l-71 110 30 31 c64 68 84 150 59 238
-19 62 -52 99 -117 128 -38 17 -66 21 -182 21 l-138 0 0 -325z m277 190 c13
-9 28 -33 34 -54 9 -32 8 -44 -5 -73 -21 -44 -51 -58 -126 -58 l-60 0 0 100 0
100 68 0 c45 0 75 -5 89 -15z"/>
<path d="M2050 4945 l0 -325 225 0 225 0 0 60 0 60 -165 0 -165 0 0 75 0 75
140 0 140 0 0 60 0 60 -140 0 -140 0 0 70 0 70 160 0 160 0 0 60 0 60 -220 0
-220 0 0 -325z"/>
<path d="M2630 4945 l0 -325 225 0 225 0 0 60 0 60 -165 0 -165 0 0 75 0 75
140 0 140 0 0 60 0 60 -140 0 -140 0 0 70 0 70 160 0 160 0 0 60 0 60 -220 0
-220 0 0 -325z"/>
<path d="M3929 5223 c10 -27 67 -174 126 -328 59 -154 111 -283 114 -287 4 -4
44 74 91 175 46 100 86 185 90 190 3 4 39 -76 80 -178 40 -102 76 -185 79
-185 3 0 51 121 105 268 55 147 110 295 123 330 l23 62 -68 0 -68 0 -54 -179
c-30 -99 -56 -178 -59 -176 -3 2 -37 82 -76 179 l-70 176 -62 0 c-35 0 -63 -1
-63 -3 0 -2 11 -31 25 -65 l25 -61 -48 -121 c-26 -66 -49 -120 -52 -120 -3 0
-34 83 -69 185 l-64 185 -73 0 -74 0 19 -47z"/>
<path d="M4870 4945 l0 -325 60 0 60 0 0 105 0 105 45 0 45 0 70 -105 70 -105
70 0 c39 0 70 3 70 6 0 3 -32 55 -71 116 l-71 110 30 31 c64 68 84 150 59 238
-19 62 -52 99 -117 128 -38 17 -66 21 -182 21 l-138 0 0 -325z m277 190 c13
-9 28 -33 34 -54 9 -32 8 -44 -5 -73 -21 -44 -51 -58 -126 -58 l-60 0 0 100 0
100 68 0 c45 0 75 -5 89 -15z"/>
<path d="M5480 4945 l0 -325 60 0 60 0 0 325 0 325 -60 0 -60 0 0 -325z"/>
<path d="M5720 5210 l0 -60 75 0 75 0 0 -265 0 -265 65 0 65 0 0 265 0 265 80
0 80 0 0 60 0 60 -220 0 -220 0 0 -60z"/>
<path d="M6280 4945 l0 -325 225 0 225 0 0 60 0 60 -165 0 -165 0 0 75 0 75
140 0 140 0 0 60 0 60 -140 0 -140 0 0 70 0 70 160 0 160 0 0 60 0 60 -220 0
-220 0 0 -325z"/>
<path d="M6870 4945 l0 -325 60 0 60 0 0 105 0 105 45 0 45 0 70 -105 70 -105
70 0 c39 0 70 3 70 6 0 3 -32 55 -71 116 l-71 110 30 31 c64 68 84 150 59 238
-19 62 -52 99 -117 128 -38 17 -66 21 -182 21 l-138 0 0 -325z m277 190 c13
-9 28 -33 34 -54 9 -32 8 -44 -5 -73 -21 -44 -51 -58 -126 -58 l-60 0 0 100 0
100 68 0 c45 0 75 -5 89 -15z"/>
<path d="M8020 5198 c1 -54 5 -68 29 -96 l29 -33 31 86 c17 47 31 90 31 96 0
5 -27 9 -60 9 l-60 0 0 -62z"/>
<path d="M2915 3757 c-22 -8 -51 -19 -64 -26 -45 -25 -113 -95 -139 -146 -24
-44 -27 -61 -27 -150 0 -92 2 -104 29 -153 55 -98 160 -168 261 -174 28 -1
130 -1 228 0 l177 2 0 65 0 65 -50 0 -49 0 26 53 c38 75 43 180 12 262 -27 72
-100 150 -174 184 -61 29 -171 37 -230 18z m171 -128 c17 -5 45 -24 62 -42 90
-93 80 -240 -21 -321 -51 -41 -143 -49 -204 -17 -140 71 -154 273 -25 361 54
38 108 43 188 19z"/>
<path d="M4868 3755 c-125 -40 -175 -190 -97 -289 11 -14 60 -45 107 -67 108
-51 132 -72 132 -115 0 -45 -30 -64 -101 -64 -39 0 -70 7 -104 25 -27 13 -50
23 -51 22 0 -1 -13 -23 -29 -50 l-27 -47 55 -26 c67 -30 156 -46 211 -37 127
19 200 116 176 231 -15 66 -62 113 -150 148 -114 44 -148 88 -109 137 18 24
28 27 77 27 35 0 74 -8 101 -20 24 -11 45 -19 46 -18 14 16 44 91 40 98 -10
16 -117 51 -174 55 -35 3 -74 -1 -103 -10z"/>
<path d="M3492 3523 c3 -223 4 -241 25 -279 82 -153 308 -186 431 -63 66 65
67 70 70 337 l3 242 -60 0 -60 0 -3 -222 c-3 -205 -5 -225 -23 -250 -45 -59
-130 -76 -192 -38 -59 35 -63 55 -63 295 l0 215 -66 0 -65 0 3 -237z"/>
<path d="M4180 3435 l0 -325 225 0 225 0 0 60 0 60 -165 0 -165 0 0 75 0 75
140 0 140 0 0 60 0 60 -140 0 -140 0 0 70 0 70 160 0 160 0 0 60 0 60 -220 0
-220 0 0 -325z"/>
<path d="M5220 3700 l0 -60 75 0 75 0 0 -265 0 -265 65 0 65 0 0 265 0 265 80
0 80 0 0 60 0 60 -220 0 -220 0 0 -60z"/>
<path d="M5690 3222 c-43 -35 -15 -112 39 -112 24 0 61 37 61 61 0 23 -42 69
-63 69 -8 0 -25 -8 -37 -18z"/>
</g>
</svg>
